<?xml version="1.0" encoding="UTF-8" standalone="no"?>
<svg
   viewBox="0 0 24 24"
   preserveAspectRatio="xMidYMid meet"
   focusable="false"
   class="style-scope yt-icon"
   style="pointer-events: none; display: block; width: 100%; height: 100%;"
   version="1.1"
   id="svg1263"
   sodipodi:docname="notifications.svg"
   inkscape:version="1.1.2 (b8e25be833, 2022-02-05)"
   xmlns:inkscape="http://www.inkscape.org/namespaces/inkscape"
   xmlns:sodipodi="http://sodipodi.sourceforge.net/DTD/sodipodi-0.dtd"
   xmlns="http://www.w3.org/2000/svg"
   xmlns:svg="http://www.w3.org/2000/svg">
  <defs
     id="defs1267" />
  <sodipodi:namedview
     id="namedview1265"
     pagecolor="#505050"
     bordercolor="#eeeeee"
     borderopacity="1"
     inkscape:pageshadow="0"
     inkscape:pageopacity="0"
     inkscape:pagecheckerboard="0"
     showgrid="false"
     inkscape:zoom="30.708333"
     inkscape:cx="12"
     inkscape:cy="12"
     inkscape:window-width="1920"
     inkscape:window-height="1001"
     inkscape:window-x="-9"
     inkscape:window-y="-9"
     inkscape:window-maximized="1"
     inkscape:current-layer="svg1263" />
  <g
     class="style-scope yt-icon"
     id="g1261">
    <path
       d="M10,20h4c0,1.1-0.9,2-2,2S10,21.1,10,20z M20,17.35V19H4v-1.65l2-1.88v-5.15c0-2.92,1.56-5.22,4-5.98V3.96 c0-1.42,1.49-2.5,2.99-1.76C13.64,2.52,14,3.23,14,3.96l0,0.39c2.44,0.75,4,3.06,4,5.98v5.15L20,17.35z M19,17.77l-2-1.88v-5.47 c0-2.47-1.19-4.36-3.13-5.1c-1.26-0.53-2.64-0.5-3.84,0.03C8.15,6.11,7,7.99,7,10.42v5.47l-2,1.88V18h14V17.77z"
       class="style-scope yt-icon"
       id="path1259"
       style="fill:#ffffff" />
  </g>
</svg>
