<?xml version="1.0" encoding="UTF-8" standalone="no"?>
<svg
   viewBox="0 0 24 24"
   preserveAspectRatio="xMidYMid meet"
   focusable="false"
   class="style-scope yt-icon"
   style="pointer-events: none; display: block; width: 100%; height: 100%;"
   version="1.1"
   id="svg1908"
   sodipodi:docname="thetube-apps.svg"
   inkscape:version="1.1.2 (b8e25be833, 2022-02-05)"
   xmlns:inkscape="http://www.inkscape.org/namespaces/inkscape"
   xmlns:sodipodi="http://sodipodi.sourceforge.net/DTD/sodipodi-0.dtd"
   xmlns="http://www.w3.org/2000/svg"
   xmlns:svg="http://www.w3.org/2000/svg">
  <defs
     id="defs1912" />
  <sodipodi:namedview
     id="namedview1910"
     pagecolor="#505050"
     bordercolor="#eeeeee"
     borderopacity="1"
     inkscape:pageshadow="0"
     inkscape:pageopacity="0"
     inkscape:pagecheckerboard="0"
     showgrid="false"
     inkscape:zoom="30.708333"
     inkscape:cx="12"
     inkscape:cy="12"
     inkscape:window-width="1920"
     inkscape:window-height="1001"
     inkscape:window-x="-9"
     inkscape:window-y="-9"
     inkscape:window-maximized="1"
     inkscape:current-layer="svg1908" />
  <g
     class="style-scope yt-icon"
     id="g1906">
    <path
       d="M16,4v4h4V4H16z M19,7h-2V5h2V7z M16,10v4h4v-4H16z M19,13h-2v-2h2V13z M10,4v4h4V4H10z M13,7h-2V5h2V7z M10,10v4h4v-4H10z M13,13h-2v-2h2V13z M16,16v4h4v-4H16z M19,19h-2v-2h2V19z M10,16v4h4v-4H10z M13,19h-2v-2h2V19z M4,4v4h4V4H4z M7,7H5V5h2V7z M4,10 v4h4v-4H4z M7,13H5v-2h2V13z M4,16v4h4v-4H4z M7,19H5v-2h2V19z"
       class="style-scope yt-icon"
       id="path1904"
       style="fill:#ffffff" />
  </g>
</svg>
