<?xml version="1.0" encoding="UTF-8" standalone="no"?>
<!-- Generator: Adobe Illustrator 16.0.3, SVG Export Plug-In . SVG Version: 6.00 Build 0)  -->

<svg
   version="1.1"
   id="Ebene_1"
   x="0px"
   y="0px"
   width="285.489px"
   height="58.675px"
   viewBox="0 0 285.489 58.675"
   enable-background="new 0 0 285.489 58.675"
   xml:space="preserve"
   sodipodi:docname="thetube-logo.svg"
   inkscape:version="1.1.2 (b8e25be833, 2022-02-05)"
   xmlns:inkscape="http://www.inkscape.org/namespaces/inkscape"
   xmlns:sodipodi="http://sodipodi.sourceforge.net/DTD/sodipodi-0.dtd"
   xmlns="http://www.w3.org/2000/svg"
   xmlns:svg="http://www.w3.org/2000/svg"><defs
   id="defs2322" /><sodipodi:namedview
   id="namedview2320"
   pagecolor="#505050"
   bordercolor="#eeeeee"
   borderopacity="1"
   inkscape:pageshadow="0"
   inkscape:pageopacity="0"
   inkscape:pagecheckerboard="0"
   showgrid="false"
   inkscape:zoom="6.1333358"
   inkscape:cx="142.74451"
   inkscape:cy="29.266292"
   inkscape:window-width="1920"
   inkscape:window-height="1001"
   inkscape:window-x="-9"
   inkscape:window-y="-9"
   inkscape:window-maximized="1"
   inkscape:current-layer="Ebene_1" />
<circle
   fill="#646464"
   cx="30.156"
   cy="29.422"
   r="28.058"
   id="circle2293" />
<g
   id="g2301">
	<g
   id="g2299">
		<g
   id="g2297">
			<path
   fill="#FFFFFF"
   d="M21.301,42.827l23.377-13.496L21.301,15.835V42.827z"
   id="path2295" />
		</g>
	</g>
</g>
<g
   id="g2317"
   style="fill:#ffffff">
	<path
   d="M103.609,17.438H91.414v33.168H83.21V17.438H71.179v-6.645h32.43V17.438z"
   id="path2303"
   style="fill:#ffffff" />
	<path
   d="M115.476,24.246c2.096-2.516,4.73-3.773,7.902-3.773c6.417,0,9.67,3.728,9.762,11.184v18.949h-7.902v-18.73   c0-1.695-0.365-2.948-1.094-3.76c-0.729-0.811-1.941-1.217-3.637-1.217c-2.315,0-3.992,0.894-5.031,2.68v21.027h-7.902v-42h7.902   V24.246z"
   id="path2305"
   style="fill:#ffffff" />
	<path
   d="M152.719,51.152c-4.34,0-7.871-1.331-10.596-3.992c-2.727-2.661-4.088-6.207-4.088-10.637v-0.766   c0-2.971,0.574-5.628,1.723-7.971c1.148-2.342,2.775-4.147,4.881-5.414c2.105-1.267,4.506-1.9,7.205-1.9   c4.047,0,7.232,1.276,9.557,3.828c2.324,2.552,3.486,6.171,3.486,10.855v3.227h-18.84c0.254,1.933,1.025,3.482,2.311,4.648   c1.285,1.167,2.912,1.75,4.881,1.75c3.043,0,5.422-1.103,7.137-3.309l3.883,4.348c-1.186,1.677-2.789,2.985-4.813,3.924   S155.18,51.152,152.719,51.152z M151.816,26.844c-1.568,0-2.84,0.531-3.814,1.593c-0.977,1.062-1.6,2.582-1.873,4.559h10.992   v-0.632c-0.037-1.758-0.512-3.117-1.422-4.079C154.787,27.324,153.492,26.844,151.816,26.844z"
   id="path2307"
   style="fill:#ffffff" />
	<path
   d="M199.859,17.438h-12.195v33.168h-8.203V17.438H167.43v-6.645h32.43V17.438z"
   id="path2309"
   style="fill:#ffffff" />
	<path
   d="M213.222,47.598c-1.95,2.37-4.648,3.555-8.094,3.555c-3.172,0-5.592-0.911-7.26-2.734   c-1.668-1.823-2.521-4.493-2.557-8.012V21.02h7.902v19.136c0,3.084,1.403,4.626,4.211,4.626c2.68,0,4.521-0.931,5.523-2.792V21.02   h7.93v29.586h-7.438L213.222,47.598z"
   id="path2311"
   style="fill:#ffffff" />
	<path
   d="M253.499,36.086c0,4.74-1.012,8.436-3.035,11.088s-4.85,3.979-8.477,3.979c-3.209,0-5.77-1.23-7.684-3.691l-0.355,3.145   h-7.109v-42h7.902v15.066c1.823-2.133,4.22-3.199,7.191-3.199c3.609,0,6.439,1.326,8.49,3.979s3.076,6.385,3.076,11.197V36.086z    M245.597,35.512c0-2.989-0.475-5.172-1.422-6.549c-0.948-1.376-2.361-2.064-4.238-2.064c-2.516,0-4.247,1.03-5.195,3.09v11.676   c0.966,2.078,2.716,3.117,5.25,3.117c2.552,0,4.229-1.258,5.031-3.773C245.405,39.805,245.597,37.973,245.597,35.512z"
   id="path2313"
   style="fill:#ffffff" />
	<path
   d="M271.983,51.152c-4.339,0-7.871-1.331-10.596-3.992c-2.726-2.661-4.088-6.207-4.088-10.637v-0.766   c0-2.971,0.574-5.628,1.723-7.971c1.148-2.342,2.775-4.147,4.881-5.414c2.105-1.267,4.507-1.9,7.205-1.9   c4.047,0,7.232,1.276,9.557,3.828c2.324,2.552,3.486,6.171,3.486,10.855v3.227h-18.84c0.255,1.933,1.025,3.482,2.311,4.648   c1.285,1.167,2.912,1.75,4.881,1.75c3.044,0,5.423-1.103,7.137-3.309l3.883,4.348c-1.186,1.677-2.789,2.985-4.813,3.924   S274.444,51.152,271.983,51.152z M271.081,26.844c-1.568,0-2.84,0.531-3.814,1.593c-0.976,1.062-1.6,2.582-1.873,4.559h10.992   v-0.632c-0.037-1.758-0.511-3.117-1.422-4.079C274.052,27.324,272.758,26.844,271.081,26.844z"
   id="path2315"
   style="fill:#ffffff" />
</g>
</svg>
