<?xml version="1.0" encoding="UTF-8" standalone="no"?>
<svg
   version="1.2"
   width="6.61mm"
   height="6.61mm"
   viewBox="0 0 661 661"
   preserveAspectRatio="xMidYMid"
   fill-rule="evenodd"
   stroke-width="28.222"
   stroke-linejoin="round"
   xml:space="preserve"
   id="svg3038"
   sodipodi:docname="upload-forbidden.svg"
   inkscape:version="1.1.2 (b8e25be833, 2022-02-05)"
   xmlns:inkscape="http://www.inkscape.org/namespaces/inkscape"
   xmlns:sodipodi="http://sodipodi.sourceforge.net/DTD/sodipodi-0.dtd"
   xmlns="http://www.w3.org/2000/svg"
   xmlns:svg="http://www.w3.org/2000/svg"
   xmlns:ooo="http://xml.openoffice.org/svg/export"><sodipodi:namedview
   id="namedview3040"
   pagecolor="#505050"
   bordercolor="#eeeeee"
   borderopacity="1"
   inkscape:pageshadow="0"
   inkscape:pageopacity="0"
   inkscape:pagecheckerboard="0"
   inkscape:document-units="mm"
   showgrid="false"
   inkscape:zoom="29.500441"
   inkscape:cx="12.491339"
   inkscape:cy="12.491339"
   inkscape:window-width="1920"
   inkscape:window-height="1001"
   inkscape:window-x="-9"
   inkscape:window-y="-9"
   inkscape:window-maximized="1"
   inkscape:current-layer="svg3038" />
 <defs
   class="ClipPathGroup"
   id="defs2966">
  <clipPath
   id="presentation_clip_path"
   clipPathUnits="userSpaceOnUse">
   <rect
   x="0"
   y="0"
   width="661"
   height="661"
   id="rect2960" />
  </clipPath>
  <clipPath
   id="presentation_clip_path_shrink"
   clipPathUnits="userSpaceOnUse">
   <rect
   x="0"
   y="0"
   width="660"
   height="660"
   id="rect2963" />
  </clipPath>
 </defs>
 <defs
   class="TextShapeIndex"
   id="defs2970">
  <g
   ooo:slide="id1"
   ooo:id-list="id3 id4 id5"
   id="g2968" />
 </defs>
 <defs
   class="EmbeddedBulletChars"
   id="defs3002">
  <g
   id="bullet-char-template-57356"
   transform="scale(0.00048828125,-0.00048828125)">
   <path
   d="M 580,1141 L 1163,571 580,0 -4,571 580,1141 Z"
   id="path2972" />
  </g>
  <g
   id="bullet-char-template-57354"
   transform="scale(0.00048828125,-0.00048828125)">
   <path
   d="M 8,1128 L 1137,1128 1137,0 8,0 8,1128 Z"
   id="path2975" />
  </g>
  <g
   id="bullet-char-template-10146"
   transform="scale(0.00048828125,-0.00048828125)">
   <path
   d="M 174,0 L 602,739 174,1481 1456,739 174,0 Z M 1358,739 L 309,1346 659,739 1358,739 Z"
   id="path2978" />
  </g>
  <g
   id="bullet-char-template-10132"
   transform="scale(0.00048828125,-0.00048828125)">
   <path
   d="M 2015,739 L 1276,0 717,0 1260,543 174,543 174,936 1260,936 717,1481 1274,1481 2015,739 Z"
   id="path2981" />
  </g>
  <g
   id="bullet-char-template-10007"
   transform="scale(0.00048828125,-0.00048828125)">
   <path
   d="M 0,-2 C -7,14 -16,27 -25,37 L 356,567 C 262,823 215,952 215,954 215,979 228,992 255,992 264,992 276,990 289,987 310,991 331,999 354,1012 L 381,999 492,748 772,1049 836,1024 860,1049 C 881,1039 901,1025 922,1006 886,937 835,863 770,784 769,783 710,716 594,584 L 774,223 C 774,196 753,168 711,139 L 727,119 C 717,90 699,76 672,76 641,76 570,178 457,381 L 164,-76 C 142,-110 111,-127 72,-127 30,-127 9,-110 8,-76 1,-67 -2,-52 -2,-32 -2,-23 -1,-13 0,-2 Z"
   id="path2984" />
  </g>
  <g
   id="bullet-char-template-10004"
   transform="scale(0.00048828125,-0.00048828125)">
   <path
   d="M 285,-33 C 182,-33 111,30 74,156 52,228 41,333 41,471 41,549 55,616 82,672 116,743 169,778 240,778 293,778 328,747 346,684 L 369,508 C 377,444 397,411 428,410 L 1163,1116 C 1174,1127 1196,1133 1229,1133 1271,1133 1292,1118 1292,1087 L 1292,965 C 1292,929 1282,901 1262,881 L 442,47 C 390,-6 338,-33 285,-33 Z"
   id="path2987" />
  </g>
  <g
   id="bullet-char-template-9679"
   transform="scale(0.00048828125,-0.00048828125)">
   <path
   d="M 813,0 C 632,0 489,54 383,161 276,268 223,411 223,592 223,773 276,916 383,1023 489,1130 632,1184 813,1184 992,1184 1136,1130 1245,1023 1353,916 1407,772 1407,592 1407,412 1353,268 1245,161 1136,54 992,0 813,0 Z"
   id="path2990" />
  </g>
  <g
   id="bullet-char-template-8226"
   transform="scale(0.00048828125,-0.00048828125)">
   <path
   d="M 346,457 C 273,457 209,483 155,535 101,586 74,649 74,723 74,796 101,859 155,911 209,963 273,989 346,989 419,989 480,963 531,910 582,859 608,796 608,723 608,648 583,586 532,535 482,483 420,457 346,457 Z"
   id="path2993" />
  </g>
  <g
   id="bullet-char-template-8211"
   transform="scale(0.00048828125,-0.00048828125)">
   <path
   d="M -4,459 L 1135,459 1135,606 -4,606 -4,459 Z"
   id="path2996" />
  </g>
  <g
   id="bullet-char-template-61548"
   transform="scale(0.00048828125,-0.00048828125)">
   <path
   d="M 173,740 C 173,903 231,1043 346,1159 462,1274 601,1332 765,1332 928,1332 1067,1274 1183,1159 1299,1043 1357,903 1357,740 1357,577 1299,437 1183,322 1067,206 928,148 765,148 601,148 462,206 346,322 231,437 173,577 173,740 Z"
   id="path2999" />
  </g>
 </defs>
 <g
   id="g3007">
  <g
   id="id2"
   class="Master_Slide">
   <g
   id="bg-id2"
   class="Background" />
   <g
   id="bo-id2"
   class="BackgroundObjects" />
  </g>
 </g>
 <g
   class="SlideGroup"
   id="g3036">
  <g
   id="g3034">
   <g
   id="container-id1">
    <g
   id="id1"
   class="Slide"
   clip-path="url(#presentation_clip_path)">
     <g
   class="Page"
   id="g3030">
      <g
   class="Graphic"
   id="g3014">
       <g
   id="id3">
        <rect
   class="BoundingBox"
   stroke="none"
   fill="none"
   x="0"
   y="0"
   width="661"
   height="661"
   id="rect3009" />
        <path
   fill="rgb(0,0,0)"
   stroke="none"
   d="M 383,356 L 304,356 304,436 251,436 251,356 172,356 172,304 251,304 251,224 304,224 304,304 383,304 383,356 Z M 92,172 L 92,488 462,488 462,320 568,368 568,239 462,287 462,172 92,172 Z M 488,145 L 488,246 594,198 594,409 488,361 488,515 66,515 66,145 488,145 Z"
   id="path3011"
   style="fill:#ffffff" />
       </g>
      </g>
      <g
   class="com.sun.star.drawing.LineShape"
   id="g3021">
       <g
   id="id4">
        <rect
   class="BoundingBox"
   stroke="none"
   fill="none"
   x="62"
   y="62"
   width="537"
   height="537"
   id="rect3016" />
        <path
   fill="none"
   stroke="rgb(255,0,0)"
   stroke-width="35"
   stroke-linejoin="round"
   d="M 80,80 L 580,580"
   id="path3018" />
       </g>
      </g>
      <g
   class="com.sun.star.drawing.LineShape"
   id="g3028">
       <g
   id="id5">
        <rect
   class="BoundingBox"
   stroke="none"
   fill="none"
   x="62"
   y="62"
   width="537"
   height="537"
   id="rect3023" />
        <path
   fill="none"
   stroke="rgb(255,0,0)"
   stroke-width="35"
   stroke-linejoin="round"
   d="M 580,80 L 80,580"
   id="path3025" />
       </g>
      </g>
     </g>
    </g>
   </g>
  </g>
 </g>
</svg>
