<?xml version="1.0" encoding="utf-8"?>
<!-- Generator: Adobe Illustrator 16.0.3, SVG Export Plug-In . SVG Version: 6.00 Build 0)  -->
<!DOCTYPE svg PUBLIC "-//W3C//DTD SVG 1.1//EN" "http://www.w3.org/Graphics/SVG/1.1/DTD/svg11.dtd">
<svg version="1.1" id="Ebene_1" xmlns="http://www.w3.org/2000/svg" xmlns:xlink="http://www.w3.org/1999/xlink" x="0px" y="0px"
	 width="204.09px" height="85.04px" viewBox="0 0 204.09 85.04" enable-background="new 0 0 204.09 85.04" xml:space="preserve">
<rect x="10.58" y="51.33" fill="#907EB9" width="190.84" height="30.13"/>
<g>
	<defs>
		<rect id="SVGID_1_" y="0" width="204.09" height="85.04"/>
	</defs>
	<clipPath id="SVGID_2_">
		<use xlink:href="#SVGID_1_"  overflow="visible"/>
	</clipPath>
	<polygon clip-path="url(#SVGID_2_)" fill="none" stroke="#FFFFFF" stroke-width="4.597" stroke-miterlimit="9.193" points="
		31.78,21.34 31.78,21.36 40.19,12.95 24.76,12.92 24.76,4.53 16.38,12.92 13.54,12.92 5.12,21.34 16.35,21.36 16.35,43.81 
		24.76,43.81 33.18,35.39 24.76,35.39 24.76,21.36 	"/>
	<path clip-path="url(#SVGID_2_)" fill="none" stroke="#FFFFFF" stroke-width="4.597" stroke-miterlimit="9.193" d="M44.43,1.72
		h-8.42v8.42h8.42V1.72z M36.01,43.81l8.42-8.42V12.95l-8.42,8.42V43.81z"/>
	<polygon clip-path="url(#SVGID_2_)" fill="none" stroke="#FFFFFF" stroke-width="4.597" stroke-miterlimit="9.193" points="
		69.71,30.4 55.68,12.95 47.26,21.36 47.26,36.79 40.25,43.81 55.68,43.81 55.68,26.33 69.71,43.81 78.13,35.39 78.13,4.53 
		69.71,12.95 	"/>
</g>
<polygon fill="none" stroke="#FFFFFF" stroke-width="4.597" stroke-miterlimit="9.193" points="89.35,35.39 89.35,21.36 
	104.78,21.36 113.19,12.95 89.35,12.95 80.93,21.36 80.93,35.39 89.35,43.81 97.76,43.81 106.18,35.39 "/>
<g>
	<defs>
		<rect id="SVGID_3_" y="0" width="204.09" height="85.04"/>
	</defs>
	<clipPath id="SVGID_4_">
		<use xlink:href="#SVGID_3_"  overflow="visible"/>
	</clipPath>
	<polygon clip-path="url(#SVGID_4_)" fill="none" stroke="#FFFFFF" stroke-width="4.597" stroke-miterlimit="9.193" points="
		139.88,35.39 139.88,21.36 131.46,12.95 117.43,12.95 117.43,1.72 109.01,10.14 109.01,43.81 117.43,35.39 117.43,21.36 
		131.46,21.36 131.46,43.81 	"/>
</g>
<path fill="none" stroke="#FFFFFF" stroke-width="4.597" stroke-miterlimit="9.193" d="M174.92,12.95h-23.85l-8.42,8.42h23.85
	L174.92,12.95z M167.9,24.17h-25.25v8.42l25.25,0.03V24.17z M167.9,35.39h-23.85l-8.42,8.42h23.85L167.9,35.39z"/>
<g>
	<defs>
		<rect id="SVGID_5_" y="0" width="204.09" height="85.04"/>
	</defs>
	<clipPath id="SVGID_6_">
		<use xlink:href="#SVGID_5_"  overflow="visible"/>
	</clipPath>
	<polygon clip-path="url(#SVGID_6_)" fill="none" stroke="#FFFFFF" stroke-width="4.597" stroke-miterlimit="9.193" points="
		193.18,30.4 179.15,12.95 170.74,21.36 170.74,36.79 163.72,43.81 179.15,43.81 179.15,26.33 193.18,43.81 201.6,35.39 201.6,4.53 
		193.18,12.95 	"/>
	<g clip-path="url(#SVGID_6_)">
		<path fill="#907EB9" d="M24.76,21.36v14.03h8.42l-8.42,8.42h-8.42V21.36L5.13,21.34l8.42-8.42h2.83l8.39-8.39v8.39l15.43,0.03
			l-8.42,8.42v-0.03L24.76,21.36z"/>
		<path fill="#907EB9" d="M44.43,10.14h-8.42V1.72h8.42V10.14z M36.01,21.36l8.42-8.42v22.44l-8.42,8.42V21.36z"/>
		<path fill="#907EB9" d="M69.71,12.95l8.42-8.42v30.86l-8.42,8.42L55.68,26.33v17.48H40.25l7.01-7.01V21.36l8.42-8.42L69.71,30.4
			V12.95z"/>
		<path fill="#907EB9" d="M106.18,35.39l-8.42,8.42h-8.42l-8.42-8.42V21.36l8.42-8.42h23.85l-8.42,8.42H89.35v14.03H106.18z"/>
		<path fill="#907EB9" d="M131.46,43.81V21.36h-14.03v14.03l-8.42,8.42V10.14l8.42-8.42v11.22h14.03l8.42,8.42v14.03L131.46,43.81z"
			/>
		<path fill="#907EB9" d="M159.49,43.81h-23.85l8.42-8.42h23.85L159.49,43.81z M166.5,21.36h-23.85l8.42-8.42h23.85L166.5,21.36z
			 M167.9,32.61l-25.25-0.03v-8.42h25.25V32.61z"/>
		<path fill="#907EB9" d="M193.18,12.95l8.42-8.42v30.86l-8.42,8.42l-14.03-17.48v17.48h-15.43l7.01-7.01V21.36l8.42-8.42
			l14.03,17.45V12.95z"/>
	</g>
	<g clip-path="url(#SVGID_6_)">
	</g>
</g>
<g>
	<path fill="#FFFFFF" d="M23.6,57.1c2.66,0,4.69,0.49,6.1,1.46c1.41,0.97,2.11,2.46,2.11,4.46c0,2.5-1.23,4.19-3.69,5.08
		c0.34,0.41,0.72,0.9,1.14,1.49s0.86,1.22,1.3,1.9c0.44,0.68,0.87,1.38,1.28,2.1c0.41,0.72,0.77,1.42,1.09,2.11h-3.75
		c-0.34-0.64-0.7-1.28-1.09-1.93c-0.39-0.65-0.78-1.28-1.18-1.89c-0.4-0.61-0.79-1.19-1.18-1.73c-0.39-0.54-0.75-1.02-1.09-1.45
		c-0.25,0.02-0.46,0.03-0.64,0.03c-0.18,0-0.35,0-0.5,0h-1.62v6.96h-3.35V57.55c0.81-0.18,1.68-0.3,2.6-0.36
		C22.05,57.13,22.87,57.1,23.6,57.1z M23.84,59.99c-0.71,0-1.36,0.03-1.97,0.08v5.95h1.46c0.81,0,1.53-0.04,2.15-0.13
		c0.62-0.09,1.14-0.25,1.55-0.48c0.42-0.23,0.73-0.54,0.94-0.93c0.21-0.39,0.32-0.89,0.32-1.49c0-0.57-0.11-1.04-0.32-1.43
		c-0.21-0.39-0.52-0.7-0.92-0.93c-0.4-0.23-0.87-0.39-1.42-0.49C25.1,60.04,24.5,59.99,23.84,59.99z"/>
	<path fill="#FFFFFF" d="M35.53,75.7V57.28h11.83v2.84h-8.48v4.54h7.55v2.79h-7.55v5.39H48v2.84H35.53z"/>
	<path fill="#FFFFFF" d="M58.68,76.1c-1.38,0-2.62-0.21-3.72-0.64c-1.1-0.42-2.03-1.05-2.79-1.87c-0.76-0.82-1.35-1.83-1.75-3.02
		c-0.41-1.19-0.61-2.55-0.61-4.09c0-1.54,0.23-2.91,0.7-4.09c0.47-1.19,1.11-2.19,1.93-3.02c0.81-0.82,1.77-1.45,2.87-1.87
		c1.1-0.42,2.28-0.64,3.53-0.64c0.76,0,1.45,0.06,2.07,0.17c0.62,0.12,1.16,0.24,1.62,0.39c0.46,0.14,0.84,0.29,1.14,0.45
		c0.3,0.16,0.51,0.28,0.64,0.35l-0.98,2.74c-0.43-0.27-1.03-0.52-1.82-0.76c-0.79-0.24-1.64-0.36-2.56-0.36
		c-0.8,0-1.54,0.14-2.23,0.41s-1.29,0.69-1.79,1.24c-0.5,0.55-0.9,1.24-1.18,2.07c-0.28,0.83-0.43,1.8-0.43,2.9
		c0,0.97,0.11,1.87,0.33,2.68c0.22,0.82,0.56,1.52,1.02,2.11c0.46,0.59,1.04,1.05,1.75,1.38c0.71,0.33,1.56,0.49,2.55,0.49
		c1.19,0,2.15-0.12,2.9-0.36s1.32-0.46,1.73-0.68l0.9,2.74c-0.21,0.14-0.5,0.28-0.86,0.42c-0.36,0.14-0.79,0.28-1.29,0.41
		c-0.5,0.13-1.05,0.24-1.67,0.32C60.05,76.06,59.39,76.1,58.68,76.1z"/>
	<path fill="#FFFFFF" d="M84.14,66.48c0,1.58-0.23,2.97-0.7,4.17c-0.47,1.21-1.11,2.21-1.91,3.02c-0.81,0.81-1.75,1.41-2.83,1.82
		c-1.08,0.41-2.23,0.61-3.45,0.61c-1.22,0-2.38-0.2-3.47-0.61c-1.09-0.41-2.04-1.01-2.84-1.82c-0.81-0.81-1.45-1.81-1.93-3.02
		s-0.72-2.6-0.72-4.17c0-1.58,0.24-2.96,0.72-4.16c0.48-1.2,1.13-2.2,1.95-3.02s1.78-1.43,2.86-1.83c1.08-0.41,2.22-0.61,3.43-0.61
		c1.2,0,2.35,0.2,3.43,0.61c1.08,0.41,2.02,1.02,2.83,1.83c0.81,0.81,1.45,1.82,1.93,3.02C83.9,63.51,84.14,64.9,84.14,66.48z
		 M69.76,66.48c0,1.01,0.12,1.93,0.37,2.75c0.25,0.82,0.61,1.52,1.08,2.1c0.47,0.58,1.04,1.02,1.71,1.34
		c0.67,0.32,1.44,0.48,2.29,0.48c0.83,0,1.59-0.16,2.26-0.48c0.67-0.32,1.24-0.77,1.71-1.34c0.47-0.58,0.83-1.28,1.08-2.1
		c0.25-0.82,0.37-1.74,0.37-2.75s-0.12-1.93-0.37-2.75c-0.25-0.82-0.61-1.52-1.08-2.1c-0.47-0.58-1.04-1.02-1.71-1.34
		c-0.67-0.32-1.43-0.48-2.26-0.48c-0.85,0-1.61,0.16-2.29,0.48c-0.67,0.32-1.25,0.77-1.71,1.36c-0.47,0.58-0.83,1.28-1.08,2.1
		C69.88,64.55,69.76,65.47,69.76,66.48z"/>
	<path fill="#FFFFFF" d="M92.91,57.1c2.66,0,4.69,0.49,6.1,1.46c1.41,0.97,2.11,2.46,2.11,4.46c0,2.5-1.23,4.19-3.69,5.08
		c0.34,0.41,0.72,0.9,1.14,1.49s0.86,1.22,1.3,1.9c0.44,0.68,0.87,1.38,1.28,2.1c0.41,0.72,0.77,1.42,1.09,2.11h-3.75
		c-0.34-0.64-0.7-1.28-1.09-1.93c-0.39-0.65-0.78-1.28-1.18-1.89c-0.4-0.61-0.79-1.19-1.18-1.73c-0.39-0.54-0.75-1.02-1.09-1.45
		c-0.25,0.02-0.46,0.03-0.64,0.03c-0.18,0-0.35,0-0.5,0h-1.62v6.96h-3.35V57.55c0.81-0.18,1.68-0.3,2.6-0.36
		C91.36,57.13,92.18,57.1,92.91,57.1z M93.15,59.99c-0.71,0-1.36,0.03-1.97,0.08v5.95h1.46c0.81,0,1.53-0.04,2.15-0.13
		c0.62-0.09,1.14-0.25,1.55-0.48c0.42-0.23,0.73-0.54,0.94-0.93c0.21-0.39,0.32-0.89,0.32-1.49c0-0.57-0.11-1.04-0.32-1.43
		c-0.21-0.39-0.52-0.7-0.92-0.93c-0.4-0.23-0.87-0.39-1.42-0.49C94.4,60.04,93.8,59.99,93.15,59.99z"/>
	<path fill="#FFFFFF" d="M120.47,66.48c0,1.59-0.25,2.98-0.74,4.16c-0.5,1.18-1.2,2.16-2.11,2.95s-2.01,1.37-3.29,1.75
		c-1.29,0.38-2.71,0.57-4.27,0.57c-0.74,0-1.59-0.03-2.52-0.09c-0.94-0.06-1.83-0.19-2.68-0.38V57.55c0.85-0.2,1.75-0.32,2.71-0.37
		c0.96-0.05,1.81-0.08,2.55-0.08c1.54,0,2.95,0.18,4.23,0.54c1.28,0.36,2.37,0.93,3.28,1.7c0.91,0.77,1.62,1.75,2.11,2.92
		C120.22,63.44,120.47,64.85,120.47,66.48z M108.19,72.93c0.2,0.02,0.45,0.03,0.77,0.04c0.32,0.01,0.75,0.01,1.3,0.01
		c2.25,0,3.93-0.57,5.04-1.71c1.11-1.14,1.66-2.74,1.66-4.8c0-2.09-0.54-3.69-1.62-4.81c-1.08-1.12-2.76-1.67-5.02-1.67
		c-0.99,0-1.7,0.03-2.13,0.08V72.93z"/>
	<path fill="#FFFFFF" d="M128.41,73.2c1.21,0,2.08-0.2,2.63-0.61c0.55-0.41,0.82-0.98,0.82-1.73c0-0.44-0.09-0.82-0.28-1.14
		c-0.19-0.32-0.45-0.61-0.8-0.86s-0.77-0.5-1.26-0.72s-1.06-0.44-1.7-0.65c-0.64-0.23-1.25-0.48-1.85-0.76s-1.12-0.62-1.57-1.02
		c-0.45-0.41-0.82-0.89-1.09-1.46c-0.27-0.57-0.41-1.25-0.41-2.05c0-1.67,0.58-2.97,1.73-3.92c1.15-0.95,2.72-1.42,4.7-1.42
		c1.15,0,2.17,0.13,3.07,0.39s1.6,0.54,2.11,0.84l-1.04,2.71c-0.6-0.34-1.26-0.59-1.98-0.77c-0.72-0.18-1.46-0.27-2.22-0.27
		c-0.9,0-1.61,0.19-2.11,0.56s-0.76,0.89-0.76,1.57c0,0.41,0.08,0.76,0.25,1.05c0.17,0.29,0.41,0.55,0.72,0.78
		c0.31,0.23,0.67,0.44,1.09,0.64c0.42,0.2,0.87,0.38,1.37,0.56c0.87,0.32,1.64,0.64,2.33,0.97c0.68,0.33,1.26,0.72,1.73,1.17
		c0.47,0.45,0.83,0.98,1.08,1.59s0.37,1.35,0.37,2.22c0,1.67-0.59,2.96-1.77,3.87s-2.9,1.37-5.17,1.37c-0.76,0-1.46-0.05-2.09-0.15
		c-0.63-0.1-1.19-0.22-1.67-0.36s-0.91-0.29-1.26-0.44s-0.64-0.29-0.85-0.41l0.98-2.74c0.48,0.27,1.13,0.53,1.94,0.8
		C126.28,73.07,127.26,73.2,128.41,73.2z"/>
</g>
<g>
	<path fill="#FFFFFF" d="M156.16,72.8v2.9h-11.64V57.28h3.35V72.8H156.16z"/>
	<path fill="#FFFFFF" d="M168.83,57.28v2.9h-5.66V75.7h-3.38V60.18h-5.66v-2.9H168.83z"/>
	<path fill="#FFFFFF" d="M187.04,66.48c0,1.59-0.25,2.98-0.74,4.16c-0.5,1.18-1.2,2.16-2.11,2.95s-2.01,1.37-3.29,1.75
		c-1.29,0.38-2.71,0.57-4.27,0.57c-0.74,0-1.59-0.03-2.52-0.09c-0.94-0.06-1.83-0.19-2.68-0.38V57.55c0.85-0.2,1.75-0.32,2.71-0.37
		c0.96-0.05,1.81-0.08,2.55-0.08c1.54,0,2.95,0.18,4.23,0.54c1.28,0.36,2.37,0.93,3.28,1.7c0.91,0.77,1.62,1.75,2.11,2.92
		C186.79,63.44,187.04,64.85,187.04,66.48z M174.76,72.93c0.2,0.02,0.45,0.03,0.77,0.04c0.32,0.01,0.75,0.01,1.3,0.01
		c2.25,0,3.93-0.57,5.04-1.71c1.11-1.14,1.66-2.74,1.66-4.8c0-2.09-0.54-3.69-1.62-4.81c-1.08-1.12-2.76-1.67-5.02-1.67
		c-0.99,0-1.7,0.03-2.13,0.08V72.93z"/>
	<path fill="#FFFFFF" d="M193.41,73.94c0,0.62-0.21,1.13-0.62,1.51c-0.42,0.39-0.92,0.58-1.5,0.58c-0.6,0-1.11-0.2-1.51-0.58
		s-0.61-0.89-0.61-1.51s0.2-1.13,0.61-1.53s0.91-0.6,1.51-0.6c0.58,0,1.08,0.2,1.5,0.6C193.21,72.81,193.41,73.32,193.41,73.94z"/>
</g>
</svg>
