<?xml version="1.0" encoding="utf-8"?>
<!-- Generator: Adobe Illustrator 16.0.3, SVG Export Plug-In . SVG Version: 6.00 Build 0)  -->
<!DOCTYPE svg PUBLIC "-//W3C//DTD SVG 1.1//EN" "http://www.w3.org/Graphics/SVG/1.1/DTD/svg11.dtd">
<svg version="1.1" id="Ebene_1" xmlns="http://www.w3.org/2000/svg" xmlns:xlink="http://www.w3.org/1999/xlink" x="0px" y="0px"
	 width="283.46px" height="232px" viewBox="0 0 283.46 232" enable-background="new 0 0 283.46 232" xml:space="preserve">
<g>
	<rect x="39.523" y="2.751" fill="none" width="176.54" height="226.498"/>
	<g enable-background="new    ">
		<path fill="#373437" d="M129.019,121.05c0,17.735,1.979,30.625,5.95,38.675c3.965,8.05,10.615,12.075,19.951,12.075
			c9.329,0,24.85-2.565,46.549-7.7l11.201,55.65c-22.871,7.234-44.921,10.85-66.15,10.85c-32.435,0-56.06-9.275-70.875-27.825
			c-14.82-18.55-22.225-46.2-22.225-82.95c0-36.75,7.7-64.864,23.1-84.35c15.4-19.479,40.479-29.225,75.25-29.225
			c20.3,0,40.6,3.97,60.9,11.9l-11.551,62.3c-23.1-6.765-38.91-10.15-47.425-10.15c-8.521,0-14.76,4.025-18.725,12.075
			C130.999,90.425,129.019,103.32,129.019,121.05z"/>
	</g>
	<rect x="171.408" y="77.205" fill="none" width="72.538" height="88.293"/>
	<g enable-background="new    ">
		<path fill="#504F53" d="M176.42,106.771c0-8.91,2.7-15.84,8.101-20.79c5.399-4.949,12.892-7.425,22.477-7.425
			c9.586,0,19.461,0.9,29.633,2.699l-3.105,23.761c-11.251-2.249-18.629-3.375-22.14-3.375c-3.51,0-5.265,1.08-5.265,3.239
			c0,0.811,0.27,1.374,0.81,1.688c0.54,0.316,0.945,0.563,1.216,0.743c0.27,0.181,0.786,0.404,1.552,0.675
			c0.764,0.27,1.395,0.519,1.89,0.742c0.494,0.226,2.113,0.901,4.86,2.025c2.744,1.126,4.813,2.024,6.21,2.7
			c1.395,0.675,3.308,1.777,5.738,3.307c7.02,4.591,10.529,11.341,10.529,20.25c0,8.91-2.656,15.818-7.965,20.723
			c-5.312,4.906-12.939,7.357-22.883,7.357c-9.945,0-19.689-1.215-29.228-3.645l1.89-22.815c12.061,3.062,20.204,4.591,24.436,4.591
			c2.789,0,4.186-0.99,4.186-2.971c0-0.898-0.338-1.62-1.014-2.16c-0.674-0.54-1.666-1.124-2.969-1.755
			c-1.307-0.628-3.22-1.462-5.738-2.497c-2.521-1.034-4.637-1.935-6.345-2.7c-1.711-0.764-3.735-1.957-6.075-3.577
			C180.019,122.611,176.42,115.681,176.42,106.771z"/>
	</g>
</g>
</svg>
